# xmcd CD database file
#
# Track frame offsets:
#	150
#	18276
#	30955
#	52983
#	81216
#	97818
#	114206
#	129374
#	147644
#	166684
#	180579
#	199278
#
# Disc length: 2952 seconds
#
# Revision: 6
# Processed by: cddbd v1.5.2PL0 Copyright (c) Steve Scherf et al.
# Submitted via: CDex 1.51
#
DISCID=8b0b860c
DTITLE=Rosana - Luna nueva
DYEAR=1998
DGENRE=Rhythmic Soul
TTITLE0=Contigo
TTITLE1=Domingos en el cielo
TTITLE2=Ya no siento
TTITLE3=Dime
TTITLE4=Amainara
TTITLE5=Dunas de poemas
TTITLE6=El dia que se hizo tarde
TTITLE7=Sonrie
TTITLE8=Si yo fuera tu amante
TTITLE9=Pa'calor
TTITLE10=El dia que se hizo tarde (Con María Dolores Pradera)
TTITLE11=Extra
EXTD=YEAR: 1998
EXTT0=
EXTT1=
EXTT2=
EXTT3=
EXTT4=
EXTT5=
EXTT6=
EXTT7=
EXTT8=
EXTT9=
EXTT10=
EXTT11=
PLAYORDER=
